<?xml version="1.0" encoding="UTF-8"?>
<svg id="Laag_1" data-name="Laag 1" xmlns="http://www.w3.org/2000/svg" viewBox="0 0 182.32 182.33">
  <defs>
    <style>
      .cls-1 {
        fill: #fff;
      }

      .cls-2 {
        fill: #f6b947;
      }
    </style>
  </defs>
  <rect class="cls-2" x="6.33" y="6.34" width="169.65" height="169.65" rx="24.21" ry="24.21"/>
  <g>
    <circle class="cls-1" cx="80.46" cy="131.15" r="8"/>
    <circle class="cls-1" cx="101.86" cy="131.15" r="8"/>
    <circle class="cls-1" cx="51.17" cy="101.86" r="8"/>
    <circle class="cls-1" cx="51.17" cy="80.47" r="8"/>
    <circle class="cls-1" cx="131.15" cy="80.47" r="8"/>
    <circle class="cls-1" cx="80.46" cy="51.18" r="8"/>
    <circle class="cls-1" cx="101.86" cy="51.18" r="8"/>
    <circle class="cls-1" cx="131.14" cy="101.86" r="8"/>
    <circle class="cls-1" cx="120.41" cy="120.42" r="7.99"/>
    <circle class="cls-1" cx="120.41" cy="61.91" r="7.99"/>
    <circle class="cls-1" cx="61.91" cy="120.42" r="7.99"/>
    <circle class="cls-1" cx="61.91" cy="61.91" r="7.99"/>
    <circle class="cls-1" cx="64.82" cy="43.72" r="6.67"/>
    <circle class="cls-1" cx="138.62" cy="64.82" r="6.66"/>
    <circle class="cls-1" cx="117.51" cy="138.62" r="6.66"/>
    <circle class="cls-1" cx="43.71" cy="117.51" r="6.66"/>
    <circle class="cls-1" cx="119.1" cy="44.6" r="6.66"/>
    <circle class="cls-1" cx="44.6" cy="63.22" r="6.66"/>
    <circle class="cls-1" cx="63.22" cy="137.72" r="6.66"/>
    <circle class="cls-1" cx="137.72" cy="119.11" r="6.66"/>
    <circle class="cls-1" cx="90.24" cy="145.46" r="6.66"/>
    <circle class="cls-1" cx="92.07" cy="36.87" r="6.66"/>
    <circle class="cls-1" cx="145.45" cy="92.08" r="6.66"/>
    <circle class="cls-1" cx="36.87" cy="90.25" r="6.66"/>
    <circle class="cls-1" cx="64.54" cy="152.35" r="5.33"/>
    <circle class="cls-1" cx="152.35" cy="117.78" r="5.33"/>
    <circle class="cls-1" cx="117.78" cy="29.97" r="5.33"/>
    <circle class="cls-1" cx="29.97" cy="64.55" r="5.33"/>
    <circle class="cls-1" cx="157.43" cy="83.61" r="5.32"/>
    <circle class="cls-1" cx="144.79" cy="51.5" r="5.34"/>
    <circle class="cls-1" cx="98.71" cy="157.43" r="5.32"/>
    <circle class="cls-1" cx="51.5" cy="37.54" r="5.33"/>
    <circle class="cls-1" cx="83.61" cy="24.89" r="5.32"/>
    <circle class="cls-1" cx="130.82" cy="144.79" r="5.33"/>
    <circle class="cls-1" cx="37.53" cy="130.83" r="5.33"/>
    <circle class="cls-1" cx="24.89" cy="98.72" r="5.32"/>
  </g>
</svg>