<?xml version="1.0" encoding="UTF-8"?>
<svg id="Laag_1" data-name="Laag 1" xmlns="http://www.w3.org/2000/svg" viewBox="0 0 154.1 154.1">
  <defs>
    <style>
      .cls-1 {
        fill: #fff;
      }
    </style>
  </defs>
  <circle class="cls-1" cx="65.88" cy="118.81" r="8.36"/>
  <circle class="cls-1" cx="88.22" cy="118.81" r="8.36"/>
  <circle class="cls-1" cx="35.29" cy="88.23" r="8.36"/>
  <circle class="cls-1" cx="35.29" cy="65.88" r="8.36"/>
  <circle class="cls-1" cx="118.81" cy="65.88" r="8.36"/>
  <circle class="cls-1" cx="65.88" cy="35.3" r="8.35"/>
  <circle class="cls-1" cx="88.22" cy="35.29" r="8.36"/>
  <circle class="cls-1" cx="118.81" cy="88.22" r="8.36"/>
  <circle class="cls-1" cx="107.6" cy="107.6" r="8.34"/>
  <circle class="cls-1" cx="107.6" cy="46.5" r="8.34"/>
  <circle class="cls-1" cx="46.5" cy="107.6" r="8.34"/>
  <circle class="cls-1" cx="46.5" cy="46.5" r="8.34"/>
  <circle class="cls-1" cx="49.54" cy="27.51" r="6.96"/>
  <circle class="cls-1" cx="126.61" cy="49.54" r="6.95"/>
  <circle class="cls-1" cx="104.56" cy="126.62" r="6.95"/>
  <circle class="cls-1" cx="27.49" cy="104.57" r="6.95"/>
  <circle class="cls-1" cx="106.23" cy="28.42" r="6.95"/>
  <circle class="cls-1" cx="28.43" cy="47.87" r="6.95"/>
  <circle class="cls-1" cx="47.87" cy="125.68" r="6.95"/>
  <circle class="cls-1" cx="125.67" cy="106.23" r="6.95"/>
  <circle class="cls-1" cx="76.09" cy="133.75" r="6.95"/>
  <circle class="cls-1" cx="78" cy="20.35" r="6.95"/>
  <circle class="cls-1" cx="133.75" cy="78" r="6.96"/>
  <circle class="cls-1" cx="20.35" cy="76.1" r="6.95"/>
  <circle class="cls-1" cx="49.25" cy="140.95" r="5.57"/>
  <circle class="cls-1" cx="140.95" cy="104.85" r="5.57"/>
  <circle class="cls-1" cx="104.85" cy="13.15" r="5.57"/>
  <circle class="cls-1" cx="13.15" cy="49.26" r="5.57"/>
  <circle class="cls-1" cx="146.25" cy="69.17" r="5.56"/>
  <circle class="cls-1" cx="133.05" cy="35.63" r="5.57"/>
  <circle class="cls-1" cx="84.94" cy="146.26" r="5.56"/>
  <circle class="cls-1" cx="35.63" cy="21.05" r="5.57"/>
  <circle class="cls-1" cx="69.16" cy="7.85" r="5.56"/>
  <circle class="cls-1" cx="118.47" cy="133.06" r="5.57"/>
  <circle class="cls-1" cx="21.04" cy="118.47" r="5.57"/>
  <circle class="cls-1" cx="7.84" cy="84.94" r="5.56"/>
</svg>